<svg width="354" height="296" viewBox="0 0 354 296" fill="none" xmlns="http://www.w3.org/2000/svg">
<g opacity="0.45">
<path d="M176.809 295.222C274.457 295.222 353.617 284.95 353.617 272.279C353.617 259.608 274.457 249.336 176.809 249.336C79.1599 249.336 0 259.608 0 272.279C0 284.95 79.1599 295.222 176.809 295.222Z" fill="#F5F5F5"/>
<path d="M319.592 211.772L142.291 185.624C136.98 184.841 133.309 179.9 134.092 174.589L153.044 46.0776C153.827 40.7661 158.768 37.0956 164.08 37.8787L341.381 64.0266C346.692 64.8097 350.363 69.7506 349.58 75.0621L330.628 203.573C329.845 208.885 324.904 212.555 319.592 211.772Z" fill="#F5F5F5"/>
<path d="M310.902 199.414L133.08 221.746C127.753 222.415 122.893 218.639 122.224 213.312L106.037 84.4228C105.368 79.0956 109.144 74.2348 114.471 73.5663L292.293 51.2348C297.62 50.5655 302.481 54.3416 303.15 59.6688L319.336 188.558C320.006 193.884 316.229 198.745 310.902 199.414Z" fill="#F5F5F5"/>
<path d="M136.786 211.743C135.976 211.845 135.238 211.271 135.137 210.461L120.164 91.2393C120.062 90.43 120.636 89.6911 121.446 89.5893C122.255 89.4875 122.994 90.0617 123.096 90.871L138.068 210.093C138.168 210.903 137.595 211.641 136.786 211.743Z" fill="#D6D6D6"/>
<path d="M155.241 209.017C154.431 209.119 153.692 208.544 153.591 207.735L138.618 88.5131C138.516 87.7038 139.091 86.9649 139.9 86.8639C140.709 86.7621 141.448 87.3362 141.549 88.1455L156.521 207.368C156.624 208.177 156.05 208.915 155.241 209.017Z" fill="#D6D6D6"/>
<path d="M173.696 206.289C172.887 206.391 172.148 205.817 172.046 205.008L157.074 85.7854C156.972 84.9762 157.546 84.2373 158.355 84.1355C159.165 84.0337 159.904 84.6079 160.005 85.4171L174.977 204.639C175.08 205.449 174.505 206.187 173.696 206.289Z" fill="#D6D6D6"/>
<path d="M192.151 203.562C191.342 203.664 190.603 203.09 190.501 202.281L175.529 83.0585C175.427 82.2493 176.001 81.5104 176.81 81.4085C177.62 81.3067 178.359 81.8809 178.46 82.6902L193.433 201.912C193.535 202.722 192.961 203.461 192.151 203.562Z" fill="#D6D6D6"/>
<path d="M210.607 200.836C209.798 200.938 209.059 200.364 208.958 199.554L193.985 80.3323C193.884 79.523 194.458 78.7841 195.267 78.6831C196.076 78.5813 196.815 79.1555 196.916 79.9647L211.889 199.187C211.99 199.996 211.416 200.734 210.607 200.836Z" fill="#D6D6D6"/>
<path d="M229.062 198.108C228.253 198.21 227.514 197.636 227.413 196.827L212.44 77.6047C212.339 76.7954 212.913 76.0565 213.722 75.9547C214.531 75.8529 215.27 76.4271 215.371 77.2363L230.344 196.458C230.445 197.268 229.871 198.007 229.062 198.108Z" fill="#D6D6D6"/>
<path d="M247.517 195.383C246.708 195.485 245.969 194.911 245.868 194.101L230.895 74.8792C230.794 74.0699 231.368 73.331 232.177 73.2292C232.986 73.1274 233.725 73.7016 233.826 74.5109L248.799 193.733C248.901 194.543 248.326 195.281 247.517 195.383Z" fill="#D6D6D6"/>
<path d="M265.972 192.655C265.163 192.757 264.424 192.183 264.323 191.374L249.351 72.1515C249.249 71.3423 249.823 70.6034 250.632 70.5023C251.441 70.4005 252.18 70.9747 252.281 71.7839L267.254 191.006C267.356 191.815 266.782 192.553 265.972 192.655Z" fill="#D6D6D6"/>
<path d="M284.427 189.928C283.618 190.03 282.879 189.456 282.777 188.647L267.805 69.4246C267.703 68.6153 268.277 67.8764 269.086 67.7754C269.896 67.6736 270.634 68.2478 270.736 69.057L285.708 188.279C285.811 189.088 285.237 189.827 284.427 189.928Z" fill="#D6D6D6"/>
<path d="M302.883 187.202C302.074 187.304 301.335 186.73 301.234 185.921L286.261 66.6984C286.159 65.8891 286.734 65.1503 287.543 65.0484C288.352 64.9466 289.091 65.5208 289.192 66.3301L304.165 185.552C304.266 186.362 303.692 187.1 302.883 187.202Z" fill="#D6D6D6"/>
<path d="M149.428 69.176L289.986 50.831C297.06 49.9079 303.514 54.9694 304.304 62.0588L311.023 122.361" stroke="#262626" stroke-width="0.4147" stroke-miterlimit="10" stroke-linecap="round" stroke-linejoin="round"/>
<path d="M335.012 268.252L156.252 258.962C150.831 258.68 146.665 254.057 146.946 248.635L153.85 115.781C154.131 110.359 158.755 106.193 164.176 106.475L342.937 115.764C348.358 116.046 352.524 120.669 352.243 126.091L345.338 258.945C345.058 264.367 340.434 268.533 335.012 268.252Z" fill="#F5F5F5"/>
<path d="M335.012 268.252L156.252 258.962C150.831 258.68 146.665 254.057 146.946 248.635L153.85 115.781C154.131 110.359 158.755 106.193 164.176 106.475L342.937 115.764C348.358 116.046 352.524 120.669 352.243 126.091L345.338 258.945C345.058 264.367 340.434 268.533 335.012 268.252Z" stroke="#262626" stroke-width="0.4147" stroke-miterlimit="10" stroke-linecap="round" stroke-linejoin="round"/>
<path d="M185.675 122.362L165.952 96.8514C163.825 94.1009 160.563 92.4495 157.254 92.4495H106.304C100.832 92.4495 96.8616 96.8851 97.4343 102.357L99.5297 122.362L99.6083 123.111L114.102 261.472C114.675 266.944 119.575 271.38 125.047 271.38H327.702C333.174 271.38 337.145 266.944 336.572 261.472L323.038 132.27C322.465 126.798 317.565 122.362 312.093 122.362H185.675Z" fill="#3762EE"/>
<path d="M210.959 215.205C209.84 210.929 209.265 207.486 209.233 204.878C209.202 202.27 209.843 199.878 211.159 197.704C211.904 196.399 212.841 195.277 213.973 194.334C215.102 193.393 216.109 192.396 216.994 191.345C217.878 190.296 218.547 189.117 219.003 187.812C219.459 186.508 219.412 184.806 218.862 182.704C217.932 179.154 216.304 176.671 213.977 175.258C211.65 173.845 209.146 173.138 206.465 173.138C202.624 173.138 200.259 174.208 199.37 176.345C198.48 178.483 198.328 181.364 198.916 184.987H184.894C183.964 181.437 183.698 178.212 184.1 175.313C184.499 172.415 185.503 169.95 187.11 167.921C188.716 165.893 190.88 164.333 193.603 163.247C196.325 162.16 199.498 161.617 203.122 161.617C210.948 161.617 217.543 163.211 222.908 166.4C228.271 169.589 231.894 174.769 233.773 181.944C234.381 184.264 234.675 186.292 234.661 188.031C234.644 189.77 234.35 191.347 233.78 192.759C233.207 194.172 232.393 195.496 231.34 196.727C230.285 197.96 229.06 199.227 227.662 200.532C226.39 201.765 225.403 202.906 224.7 203.956C223.997 205.007 223.542 206.113 223.34 207.271C223.137 208.431 223.128 209.646 223.316 210.913C223.502 212.182 223.806 213.614 224.223 215.206H210.959V215.205ZM216.019 236.184L212.291 221.944H226.964L230.693 236.184H216.019Z" fill="white"/>
<path d="M99.5298 122.362L99.6084 123.111" stroke="#262626" stroke-width="0.4657" stroke-miterlimit="10" stroke-linecap="round" stroke-linejoin="round"/>
<path d="M336.572 261.472L323.038 132.27C322.465 126.798 317.565 122.362 312.094 122.362H185.676L165.952 96.8514C163.825 94.1009 160.563 92.4495 157.254 92.4495H106.304" stroke="#262626" stroke-width="0.4657" stroke-miterlimit="10" stroke-linecap="round" stroke-linejoin="round"/>
<path d="M86.0181 145.636V151.385C86.0181 151.385 95.4021 190.752 97.2332 196.017C99.0644 201.281 90.8242 251.978 90.8242 251.978H63.3595L66.8451 195.559L36.9383 248.262L12.4014 233.782C12.4014 233.782 36.266 188.885 36.9383 180.778C37.6105 172.671 35.2067 135.327 35.2067 135.327L86.0181 145.636Z" fill="#3897E9"/>
<path d="M49.9738 138.323C49.9738 138.323 52.7557 177.714 50.7816 184.637C48.8075 191.561 25.5649 241.551 25.5649 241.551" stroke="#262626" stroke-width="0.4147" stroke-miterlimit="10" stroke-linecap="round" stroke-linejoin="round"/>
<path d="M66.8263 194.705C65.6704 213.796 64.5153 232.886 63.3594 251.977H75.4152L71.0957 184.637C70.8479 186.315 70.3156 188.586 69.1066 191.046C68.3796 192.525 67.5696 193.741 66.8263 194.705Z" fill="#1775AF"/>
<path d="M62.4012 161.971L57.9596 158.729H60.1179C61.4692 158.729 62.4289 157.413 62.0157 156.126C61.9168 155.818 61.6294 155.609 61.3052 155.604C59.927 155.58 58.7756 155.517 57.9229 155.457C55.8949 155.315 54.8626 155.237 53.9822 154.924C52.5373 154.41 52.3412 153.894 50.8634 153.379C49.9688 153.066 49.1476 152.945 48.4753 152.903C45.1903 150.088 42.514 146.943 40.5983 143.492L36.4958 158.558C36.3895 158.534 36.6298 159.94 36.5617 159.993C38.848 161.103 40.7226 161.679 42.7603 162.377C42.9669 163.174 43.3016 164.065 43.8548 164.966C44.7127 166.362 45.674 167.098 47.4886 168.485C47.8495 168.761 47.5725 168.533 52.062 170.998C52.4819 171.228 53.2732 171.663 53.8399 171.346C54.3108 171.083 54.4838 170.379 54.498 170.316C54.5751 169.986 54.5452 169.703 54.5122 169.529C54.6155 169.615 54.7735 169.729 54.9838 169.827C55.552 170.092 56.6001 170.277 57.2305 169.658C57.7867 169.111 57.6886 168.257 57.6662 168.058C57.6265 167.707 57.5097 167.433 57.4169 167.255L58.2149 167.574C58.7839 167.802 59.4314 167.712 59.9173 167.338C60.8299 166.636 60.8186 165.256 59.8941 164.57L59.6193 164.365L61.1488 164.717C61.7342 164.852 62.3443 164.634 62.7119 164.16C63.2427 163.472 63.1027 162.483 62.4012 161.971Z" fill="#1775AF"/>
<path d="M84.3779 80.4884C84.3779 80.4884 105.517 122.251 107.894 127.06C110.272 131.869 127.638 151.34 127.638 151.34L116.668 158.554C111.986 154.594 107.304 150.633 102.622 146.673C99.5525 143.923 96.4824 140.767 93.5463 137.142C76.8033 116.472 74.0432 92.4604 73.7295 79.1641L84.3779 80.4884Z" fill="#F7A99C"/>
<path d="M101.108 113.575C100.719 116.405 99.8173 120.514 97.5587 125.001C95.6834 128.726 92.8573 132.062 91.0958 133.959C90.7896 133.674 89.7625 132.653 89.5334 130.966C89.3365 129.515 89.8426 128.403 90.0485 128.005L98.8463 108.479L101.108 113.575Z" fill="#FF7769"/>
<path d="M64.3643 51.3655C62.9629 52.8156 61.6566 53.6361 60.6983 54.1227C58.0998 55.4417 56.5375 57.4503 55.9161 60.3565C55.4123 62.7109 55.5972 65.1956 56.378 67.4691C56.7748 68.6235 57.3258 69.7262 58.0205 70.7309C58.698 71.7116 59.3935 72.4827 59.0476 73.7853C58.5842 75.5333 56.2275 76.0843 55.0365 77.2432C53.5654 78.6745 52.7809 80.7527 52.706 82.783C52.6603 84.0227 52.8572 85.2999 53.4808 86.3726C54.2534 87.7022 55.5702 88.5519 56.8669 89.308C58.2615 90.121 59.6158 91.0051 61.0472 91.7523" stroke="#262626" stroke-width="0.4147" stroke-miterlimit="10" stroke-linecap="round" stroke-linejoin="round"/>
<path d="M87.5352 52.4578C88.8932 53.8277 90.329 55.3579 90.5169 57.2774C90.594 58.0627 90.4503 58.8533 90.2467 59.6161C89.8746 61.0063 89.3004 62.3366 88.9493 63.732C88.6776 64.8108 88.5428 65.9525 88.8048 67.0335C89.0421 68.0134 89.5939 68.8908 90.2325 69.6709C92.0494 71.8928 94.138 73.4335 94.561 76.4602C94.7916 78.1079 94.5999 79.7863 94.302 81.4228C94.1171 82.4394 93.8745 83.4845 93.2464 84.305C92.0898 85.8172 89.9105 86.3353 88.1393 86.6946" stroke="#262626" stroke-width="0.4147" stroke-miterlimit="10" stroke-linecap="round" stroke-linejoin="round"/>
<path d="M74.1827 49.1513C72.7716 49.1431 71.5431 49.1835 71.0894 49.2255C65.2112 49.766 59.7111 53.0726 57.975 58.9471C57.1792 61.6399 57.326 63.9194 57.5835 65.1801C58.2483 68.4337 60.4358 69.6577 59.878 72.0338C59.7642 72.5182 59.6175 72.7233 58.4991 74.3351C55.9478 78.0116 54.6691 79.8562 54.5508 80.1713C53.4406 83.1336 54.5845 86.7106 56.3251 88.8471C57.4158 90.1864 58.9602 91.3446 61.0594 92.073C64.7239 93.3449 75.8335 97.7775 85.9646 91.7293C88.4732 90.2321 92.5952 87.7714 93.6896 83.1464C95.0379 77.4486 90.9961 71.8279 90.371 70.9588C88.8835 68.8903 88.5578 69.3769 87.7388 67.9261C86.0312 64.9024 86.9648 61.6234 87.8414 58.5084C88.6941 55.4787 88.3752 53.8175 87.8354 52.8758C86.425 50.415 82.6137 49.885 79.5421 49.4575C77.4647 49.1701 75.0586 49.1566 74.1827 49.1513Z" fill="#262626"/>
<path d="M76.9858 79.7664C84.4698 82.4247 88.8845 86.4456 91.0869 88.812C94.9461 92.9586 97.308 97.7124 99.0688 101.257C100.231 103.595 101.073 105.62 101.643 107.093L89.3142 133.958L76.9858 79.7664Z" fill="#FDB6D6"/>
<path d="M66.5033 79.6189H76.9847C76.9847 79.6189 90.9174 89.8414 93.9621 98.7672C97.0075 107.694 85.9705 147.53 85.9705 147.53C78.4296 147.728 69.6288 147.424 59.9071 146.071C46.5247 144.207 35.1891 140.883 26.2842 137.562C28.2239 128.422 30.2594 120.751 31.949 114.903C36.7103 98.4236 39.6179 93.3157 43.7937 89.1541C47.6671 85.295 51.5285 83.3485 52.7061 82.7833C58.3425 80.0756 63.523 79.6421 66.5033 79.6189Z" fill="#FDB6D6"/>
<path d="M85.9655 91.7297C85.9655 91.7297 86.4588 112.884 84.5132 120.551C82.5675 128.218 77.5996 147.53 77.5996 147.53H85.9722C85.9722 147.53 90.5209 130.45 90.8645 126.158C91.2081 121.867 91.6775 114.486 91.0995 111.31C90.5216 108.134 89.3388 101.388 88.5572 98.6246C87.7742 95.8606 85.9655 91.7297 85.9655 91.7297Z" fill="#FF97CB"/>
<path d="M49.9741 117.879C48.7987 118.551 44.8378 121.009 43.1429 125.987C40.4778 133.816 46.2362 143.236 46.5648 143.626L28.7236 139.204C28.7236 139.204 29.181 126.502 30.6117 121.809C32.0423 117.117 38.9663 109.583 38.9663 109.583L49.9741 117.879Z" fill="#FF97CB"/>
<path d="M71.7667 84.8411C68.871 84.8523 66.5151 82.5136 66.5046 79.6187L66.4619 68.3369L76.9471 68.2972L76.9898 79.579C77.0003 82.4739 74.6616 84.8299 71.7667 84.8411Z" fill="#F7A99C"/>
<path d="M76.9771 76.4214L70.1489 72.9133C70.2178 73.5047 70.6063 76.2739 73.0416 78.1866C74.5965 79.4076 76.2315 79.6869 76.9861 79.7662L76.9771 76.4214Z" fill="#FF7769"/>
<path d="M66.2065 64.8415C66.1736 64.6708 65.7244 64.4132 65.5859 64.3257C65.3531 64.1767 65.1008 64.0577 64.8373 63.9731C64.326 63.8084 63.7638 63.7702 63.2382 63.8907C62.1931 64.1303 61.2664 65.0084 61.0919 66.0842C60.9909 66.7093 61.1353 67.3553 61.4033 67.9288C61.8061 68.7912 62.4889 69.5159 63.3131 69.9913C63.9966 70.385 64.7744 70.6074 65.5605 70.6545C65.7177 70.6643 67.3295 70.6268 67.3175 70.5647C66.9477 68.6564 66.5771 66.749 66.2065 64.8415Z" fill="#F7A99C"/>
<path d="M64.7702 64.9518C64.8945 65.794 65.6341 70.2333 69.6362 73.37C70.3736 73.948 75.2741 77.7892 79.7584 75.9146C85.5205 73.5055 84.8917 64.0414 84.8513 63.5286C84.7143 61.7956 84.3093 56.6922 80.0833 53.9694C76.6336 51.7475 72.8965 52.5643 72.3665 52.6893C71.808 52.8203 68.2498 53.7187 66.072 57.2072C64.0949 60.3732 64.5666 63.5743 64.7702 64.9518Z" fill="#F7A99C"/>
<path d="M81.5803 63.5344C81.6731 64.2733 82.2428 64.8101 82.8529 64.7337C83.463 64.6574 83.8823 63.9963 83.7894 63.2574C83.6966 62.5185 83.1269 61.9818 82.5168 62.0581C81.9067 62.1345 81.4874 62.7955 81.5803 63.5344Z" fill="#262626"/>
<path d="M74.9221 64.3709C75.0149 65.1097 75.5846 65.6465 76.1947 65.5701C76.8048 65.4938 77.2241 64.8327 77.1312 64.0939C77.0384 63.355 76.4687 62.8182 75.8586 62.8946C75.2485 62.9709 74.8292 63.632 74.9221 64.3709Z" fill="#262626"/>
<path d="M79.5701 64.6404L80.5912 66.0193C80.7791 66.2731 80.7087 66.6325 80.4392 66.7964L79.502 67.3669" stroke="#262626" stroke-width="0.733" stroke-miterlimit="10" stroke-linecap="round" stroke-linejoin="round"/>
<path d="M72.6887 67.8511C72.7928 68.6799 73.5496 69.2683 74.3783 69.1635C75.2071 69.0587 75.7955 68.3026 75.6907 67.4738C75.5866 66.6451 74.8298 66.0567 74.001 66.1615C73.1723 66.2656 72.5846 67.0217 72.6887 67.8511Z" fill="#FF7769"/>
<path d="M65.5034 68.6333C65.5087 68.4671 65.5229 67.3412 64.6193 66.5289C63.9118 65.8926 63.0884 65.8507 62.8638 65.8469" stroke="#262626" stroke-width="0.733" stroke-miterlimit="10" stroke-linecap="round" stroke-linejoin="round"/>
<path d="M64.7072 66.751C64.6571 66.7435 64.0514 66.6589 63.6285 67.117C63.2804 67.4936 63.3125 67.9592 63.3193 68.0363" stroke="#262626" stroke-width="0.733" stroke-miterlimit="10" stroke-linecap="round" stroke-linejoin="round"/>
<path d="M64.6373 63.9176C64.6373 63.9176 65.3821 63.9835 65.9436 64.5412C66.5051 65.0982 66.7042 66.0527 66.7042 66.0527C68.1393 65.8783 71.4265 65.2726 74.4083 62.6846C76.0246 61.2817 77.0113 59.765 77.593 58.6713C78.1365 59.1601 79.064 59.8945 80.3763 60.4605C82.0884 61.1986 84.2273 61.552 84.511 60.977C84.5634 60.8707 84.5058 60.5623 84.389 59.9462C84.347 59.7231 84.3029 59.3929 84.1943 59.077C83.9825 58.4587 83.707 57.862 83.3783 57.2968C82.7195 56.1664 81.8429 55.1625 80.8113 54.3577C80.1413 53.8352 79.4046 53.3965 78.6216 53.0633C76.1361 52.0063 72.685 52.0055 69.7144 53.5896C69.7144 53.5896 66.398 55.3586 64.936 58.8202C64.4336 60.0098 64.3071 61.1994 64.2757 61.6119C64.2128 62.4286 64.3049 62.9624 64.4292 63.3726C64.4995 63.6047 64.5781 63.7904 64.6373 63.9176Z" fill="#262626"/>
<path d="M84.0656 65.4591C84.3524 65.4231 84.6286 65.4748 84.8742 65.5856C84.845 66.3978 84.7671 67.383 84.5882 68.4281C84.5395 68.4393 84.4931 68.4551 84.443 68.4618C83.6142 68.5659 82.8574 67.9782 82.7533 67.1495C82.6485 66.3192 83.2362 65.5631 84.0656 65.4591Z" fill="#FF7769"/>
<path d="M80.0985 69.4143L77.3511 70.5357" stroke="#262626" stroke-width="0.733" stroke-miterlimit="10" stroke-linecap="round" stroke-linejoin="round"/>
<path d="M86.3408 151.674L41.6749 163.553C38.2851 164.454 36.2676 167.933 37.1689 171.324C38.0703 174.714 41.5499 176.731 44.9396 175.829L89.1736 164.065L86.3408 151.674Z" fill="#1775AF"/>
<path d="M37.1695 169.826C36.2681 166.436 38.2849 162.957 41.6747 162.055L129.28 138.756L132.545 151.032L44.9394 174.332C41.5497 175.233 38.0708 173.216 37.1695 169.826Z" fill="#4450E4"/>
<path d="M62.4007 161.972L57.9591 158.73H60.1174C61.4687 158.73 62.4284 157.414 62.0152 156.127C61.9164 155.819 61.6289 155.61 61.3047 155.605C59.9265 155.581 58.7751 155.518 57.9225 155.458C55.8944 155.316 54.8621 155.239 53.9817 154.925C52.5368 154.411 52.3407 153.895 50.8629 153.38C49.9683 153.068 49.1471 152.946 48.4748 152.904C48.0421 152.534 47.6221 152.156 47.2111 151.775L41.6406 161.999C42.0104 162.124 42.3825 162.249 42.7598 162.378C42.9664 163.175 43.3011 164.066 43.8543 164.967C44.7122 166.363 45.6735 167.099 47.4881 168.486C47.849 168.762 47.572 168.534 52.0615 170.999C52.4815 171.229 53.2727 171.664 53.8395 171.347C54.3103 171.084 54.4833 170.38 54.4975 170.317C54.5746 169.987 54.5447 169.704 54.5117 169.531C54.615 169.616 54.773 169.73 54.9834 169.828C55.5516 170.093 56.5996 170.278 57.23 169.659C57.7862 169.112 57.6881 168.258 57.6657 168.059C57.626 167.708 57.5092 167.434 57.4164 167.256L58.2144 167.575C58.7834 167.803 59.4309 167.713 59.9168 167.339C60.8294 166.637 60.8181 165.257 59.8936 164.571L59.6188 164.366L61.1483 164.718C61.7337 164.853 62.3438 164.635 62.7114 164.161C63.2422 163.473 63.1022 162.484 62.4007 161.972Z" fill="#3041BF"/>
<path d="M50.6603 86.6956C31.0494 95.0929 17.6849 110.672 17.7022 126.578C17.7126 136.44 22.8677 145.201 24.5685 148.092C31.1482 159.275 44.1466 160.651 48.8075 163.238L54.1123 155.645C42.6321 148.307 35.5756 138.057 37.6141 125.205C40.2178 108.792 54.78 101.393 56.1717 100.715L50.6603 86.6956Z" fill="#F7A99C"/>
<path d="M29.1241 101.247L43.6721 111.176L41.0362 115.219C38.7843 114.522 35.6348 113.273 32.3282 110.968C29.3786 108.912 27.2817 106.698 25.8848 104.977C26.965 103.733 28.0445 102.49 29.1241 101.247Z" fill="#FF7769"/>
<path d="M26.2852 100.026L49.9739 117.879C55.7173 106.076 60.1731 97.4277 63.363 91.3855C64.7532 88.7519 68.292 82.0898 66.1951 79.9705C65.6583 79.4277 64.0345 79.3229 60.7877 79.1118C58.2057 78.9449 56.6726 78.8535 54.6079 79.1118C54.6079 79.1118 52.1636 79.418 49.5157 80.3418C45.5128 81.7395 36.438 88.7406 26.2852 100.026Z" fill="#FDB6D6"/>
<path d="M68.8594 251.978V270.194H98.0669L97.3033 264.953C97.3033 264.953 88.1447 259.813 86.7193 258.643C85.2947 257.473 83.7682 255.183 83.4628 254.471C83.1573 253.759 83.4628 251.978 83.4628 251.978H68.8594Z" fill="#F7A99C"/>
<path d="M67.3838 258.846C67.7401 258.748 68.2784 258.656 68.8593 258.821C70.3528 259.245 70.7451 260.975 71.3912 261.899L88.1446 262.09C88.1095 261.241 88.0743 260.391 88.0398 259.543C88.912 259.26 89.7834 258.977 90.6555 258.694C92.4822 260.731 94.2586 261.914 95.6017 262.629C97.6634 263.727 100.337 264.595 101.425 266.453C101.953 267.354 101.98 268.271 101.983 268.44C101.991 268.912 102.002 269.574 101.527 270.015C101.174 270.343 100.721 270.39 100.51 270.397C89.6965 270.329 78.8842 270.261 68.071 270.193C67.6915 270.193 67.3838 269.886 67.3838 269.506V258.846Z" fill="#FFC001"/>
<path d="M100.547 272.279H68.6731C67.9612 272.279 67.3848 271.702 67.3848 270.991V269.562H101.835V270.991C101.835 271.703 101.258 272.279 100.547 272.279Z" fill="#5D1113"/>
<path d="M68.8594 251.978H83.4635L83.3355 253.797H68.8594V251.978Z" fill="#FF7769"/>
<path d="M17.3105 236.438L7.88086 252.024L32.8699 267.143L34.9301 262.263C34.9301 262.263 29.7542 253.125 29.141 251.386C28.5279 249.647 28.4074 246.898 28.5144 246.13C28.6222 245.362 29.8051 243.997 29.8051 243.997L17.3105 236.438Z" fill="#F7A99C"/>
<path d="M12.4917 241.551C12.848 241.651 13.3563 241.851 13.7673 242.293C14.8259 243.429 14.2659 245.113 14.3393 246.238L28.5744 255.074C28.9839 254.329 29.3934 253.584 29.8036 252.84C30.696 253.049 31.5883 253.258 32.4807 253.468C32.989 256.157 33.8971 258.088 34.6749 259.395C35.8705 261.402 37.7083 263.528 37.6776 265.682C37.6627 266.727 37.2112 267.525 37.1266 267.671C36.8893 268.079 36.5562 268.651 35.9214 268.782C35.449 268.88 35.038 268.686 34.8531 268.582C25.6368 262.927 16.4212 257.271 7.20489 251.616C6.87999 251.42 6.77667 250.997 6.97281 250.673L12.4917 241.551Z" fill="#FFC001"/>
<path d="M33.9105 270.212L6.64037 253.712C6.03174 253.344 5.83635 252.551 6.20467 251.942L6.94431 250.719L36.4199 268.553L35.6802 269.776C35.3119 270.384 34.5199 270.58 33.9105 270.212Z" fill="#5D1113"/>
<path d="M17.3107 236.438L29.8052 243.998L28.7542 245.488L16.3682 237.994L17.3107 236.438Z" fill="#FF7769"/>
<path d="M61.0605 92.0734C60.7648 95.4347 59.9533 100.33 57.6205 105.789C55.2549 111.324 52.2245 115.335 49.9748 117.88C42.0784 111.929 34.1819 105.978 26.2861 100.027" stroke="#262626" stroke-width="0.4147" stroke-miterlimit="10" stroke-linecap="round" stroke-linejoin="round"/>
<path d="M85.8862 91.025C87.096 93.9162 88.2212 97.1533 89.124 100.724C92.415 113.744 91.2464 125.258 89.6421 133.019" stroke="#262626" stroke-width="0.4147" stroke-miterlimit="10" stroke-linecap="round" stroke-linejoin="round"/>
<path d="M54.1124 82.1527C54.1124 82.1527 48.2926 82.557 44.3443 85.7326C40.3961 88.9083 34.9888 94.4017 34.9888 94.4017" stroke="white" stroke-width="0.4147" stroke-miterlimit="10" stroke-linecap="round" stroke-linejoin="round"/>
<path d="M42.7562 112.44C40.5687 115.595 39.3807 118.53 38.7151 120.592C37.6716 123.828 37.4298 126.426 37.3654 127.235C37.2029 129.278 36.9701 132.212 37.9748 135.581C38.3955 136.994 39.4308 139.813 39.4308 139.813" stroke="#262626" stroke-width="0.4147" stroke-miterlimit="10" stroke-linecap="round" stroke-linejoin="round"/>
<path d="M42.4102 159.021C42.4798 160.052 42.7425 161.771 43.8116 163.512C44.6695 164.909 45.6307 165.644 47.4454 167.032C47.807 167.308 47.5292 167.08 52.0187 169.544C52.4387 169.775 53.23 170.21 53.7967 169.893C54.2676 169.629 54.4405 168.926 54.4548 168.863C54.5319 168.533 54.5019 168.25 54.469 168.076C54.5723 168.161 54.7303 168.276 54.9406 168.374C55.5088 168.638 56.5577 168.824 57.1872 168.205C57.7435 167.657 57.6462 166.803 57.6229 166.604C57.5825 166.254 57.4665 165.979 57.3729 165.802L58.1709 166.121C58.7406 166.348 59.3875 166.259 59.8741 165.885C60.7866 165.183 60.7754 163.803 59.8509 163.116L59.5761 162.912L61.1055 163.264C61.691 163.399 62.3004 163.181 62.6679 162.706C63.1994 162.02 63.0595 161.031 62.3587 160.519L57.9172 157.276H60.0762C61.4275 157.276 62.3872 155.96 61.9739 154.673C61.8751 154.365 61.5877 154.156 61.2635 154.151C59.8845 154.127 58.7339 154.064 57.8812 154.004C55.8532 153.862 54.8208 153.785 53.9405 153.471C52.4956 152.957 52.2995 152.442 50.8224 151.926C49.579 151.492 48.4658 151.421 47.7157 151.429L42.4102 159.021Z" fill="#F7A99C"/>
<path d="M54.4686 168.075C53.7178 167.202 52.7565 166.218 51.5542 165.239C50.5316 164.407 49.5449 163.752 48.6646 163.237" stroke="#262626" stroke-width="0.4147" stroke-miterlimit="10" stroke-linecap="round" stroke-linejoin="round"/>
<path d="M57.3726 165.8C56.6255 164.917 55.6695 163.919 54.4725 162.922C53.1481 161.82 51.871 161.004 50.7817 160.404" stroke="#262626" stroke-width="0.4147" stroke-miterlimit="10" stroke-linecap="round" stroke-linejoin="round"/>
<path d="M59.5756 162.911C58.6166 161.958 57.3874 160.892 55.8565 159.878C54.854 159.214 53.8921 158.683 53.0132 158.258" stroke="#262626" stroke-width="0.4147" stroke-miterlimit="10" stroke-linecap="round" stroke-linejoin="round"/>
<path d="M50.7817 223.865L68.891 190.951C70.4631 188.094 71.2199 184.859 71.0777 181.601L70.4661 167.543" stroke="#262626" stroke-width="0.4147" stroke-miterlimit="10" stroke-linecap="round" stroke-linejoin="round"/>
<path d="M116.344 158.755C115.351 159.328 114.082 158.988 113.508 157.995L110.365 152.551C109.792 151.558 110.133 150.289 111.125 149.715C112.118 149.142 113.388 149.482 113.961 150.475L117.105 155.919C117.676 156.912 117.337 158.181 116.344 158.755Z" fill="#F7A99C"/>
<path d="M119.54 157.71C118.547 158.283 117.277 157.943 116.704 156.95L112.845 150.267C112.272 149.274 112.613 148.005 113.605 147.431C114.598 146.858 115.868 147.199 116.441 148.191L120.299 154.874C120.873 155.867 120.532 157.136 119.54 157.71Z" fill="#F7A99C"/>
<path d="M122.683 155.97C121.69 156.544 120.42 156.203 119.847 155.21L115.799 148.2C115.226 147.207 115.566 145.937 116.559 145.364C117.552 144.79 118.821 145.131 119.395 146.124L123.442 153.135C124.016 154.128 123.675 155.398 122.683 155.97Z" fill="#F7A99C"/>
<path d="M124.697 154.847C123.613 155.22 122.432 154.645 122.058 153.561L119.421 145.907C119.047 144.823 119.623 143.641 120.707 143.268C121.791 142.894 122.972 143.47 123.346 144.554L125.983 152.208C126.357 153.292 125.781 154.473 124.697 154.847Z" fill="#F7A99C"/>
<path d="M113.38 147.586C112.904 148.08 112.735 148.529 112.665 148.796C112.326 150.072 113.328 151.597 115.345 154.596C115.804 155.278 116.485 156.251 116.485 156.251V156.249" stroke="#262626" stroke-width="0.4147" stroke-miterlimit="10" stroke-linecap="round" stroke-linejoin="round"/>
<path d="M116.559 145.363C116.222 145.69 115.83 146.181 115.69 146.843C115.508 147.703 115.866 148.317 117.826 151.711C118.474 152.833 119.383 154.407 119.383 154.407" stroke="#262626" stroke-width="0.4147" stroke-miterlimit="10" stroke-linecap="round" stroke-linejoin="round"/>
<path d="M120.135 143.671C119.914 143.88 119.583 144.257 119.472 144.796C119.365 145.317 119.511 145.75 119.575 145.939C119.91 146.933 120.661 149.201 121.698 152.209" stroke="#262626" stroke-width="0.4147" stroke-miterlimit="10" stroke-linecap="round" stroke-linejoin="round"/>
<path opacity="0.5" d="M187.363 168.619C209.683 159.743 220.582 134.454 211.706 112.134C202.83 89.8136 177.541 78.9148 155.221 87.7905C132.901 96.6662 122.002 121.955 130.878 144.276C139.753 166.596 165.042 177.495 187.363 168.619Z" fill="#CDEBF5"/>
<path d="M171.295 79.6232C144.458 79.6232 122.702 101.379 122.702 128.216C122.702 155.054 144.458 176.81 171.295 176.81C198.133 176.81 219.889 155.054 219.889 128.216C219.889 101.379 198.133 79.6232 171.295 79.6232ZM171.295 168.919C148.816 168.919 130.593 150.696 130.593 128.216C130.593 105.737 148.816 87.5137 171.295 87.5137C193.775 87.5137 211.998 105.737 211.998 128.216C211.998 150.696 193.775 168.919 171.295 168.919Z" fill="#4450E4"/>
<path d="M179.889 156.925C179.375 156.466 179.035 155.812 178.99 155.07C178.899 153.575 180.035 152.291 181.529 152.2C184.244 152.033 186.925 151.276 189.286 150.011C191.923 148.596 193.644 146.845 194.436 145.928C195.374 144.838 197.327 142.573 198.037 139.214C199.025 134.536 196.965 130.499 196.034 128.98C195.251 127.705 195.651 126.036 196.927 125.254C198.203 124.471 199.873 124.872 200.654 126.147C202.233 128.72 204.681 133.986 203.34 140.335C202.342 145.056 199.678 148.146 198.541 149.466C197.274 150.935 195.085 153.051 191.848 154.787C188.804 156.42 185.35 157.396 181.861 157.61C181.108 157.655 180.409 157.39 179.889 156.925Z" fill="white"/>
<path d="M145.28 91.8273C148.319 89.5612 158.303 82.7106 172.746 82.9007C186.714 83.0849 196.286 89.7417 199.353 92.0736" stroke="#262626" stroke-width="0.4147" stroke-miterlimit="10" stroke-linecap="round" stroke-linejoin="round"/>
<path d="M97.4926 29.6211C97.9531 27.2314 98.5063 25.3427 99.1516 23.9555C99.7969 22.5675 100.763 21.3682 102.05 20.3561C102.798 19.7445 103.607 19.2496 104.479 18.8708C105.349 18.4928 106.165 18.0728 106.927 17.6101C107.687 17.1482 108.36 16.595 108.947 15.9519C109.534 15.3089 109.94 14.4008 110.166 13.2254C110.549 11.2416 110.269 9.74882 109.328 8.74791C108.386 7.74775 107.166 7.10244 105.668 6.81422C103.521 6.40023 101.927 6.71391 100.888 7.7515C99.8471 8.79059 99.0311 10.3028 98.4382 12.2882L90.6016 10.7774C90.9841 8.79358 91.6549 7.05303 92.6154 5.55803C93.5751 4.06378 94.7624 2.86373 96.1758 1.96014C97.5885 1.05655 99.1943 0.462894 100.992 0.179166C102.789 -0.104563 104.701 -0.0514099 106.727 0.339372C111.1 1.18232 114.381 2.73946 116.569 5.00854C118.756 7.27912 119.464 10.4181 118.691 14.4277C118.441 15.7243 118.091 16.8323 117.641 17.7539C117.19 18.6747 116.625 19.4794 115.947 20.1682C115.268 20.8562 114.477 21.4708 113.575 22.0105C112.673 22.551 111.666 23.0916 110.553 23.6336C109.529 24.1509 108.688 24.6502 108.027 25.1316C107.367 25.6137 106.832 26.1512 106.425 26.7441C106.016 27.3377 105.704 27.9816 105.486 28.674C105.269 29.3673 105.074 30.1601 104.903 31.0502L97.4926 29.6211ZM94.99 41.2988L96.5239 33.341L104.725 34.9213L103.191 42.8792L94.99 41.2988Z" fill="#4450E4"/>
<path d="M31.2708 55.3206C31.029 53.3929 30.9811 51.8223 31.127 50.6095C31.273 49.3968 31.7095 48.2469 32.4364 47.1599C32.8526 46.5101 33.3445 45.9344 33.9119 45.4313C34.4786 44.929 34.9944 44.4079 35.4578 43.8682C35.9205 43.3292 36.2948 42.7422 36.5808 42.1089C36.866 41.4756 36.9498 40.6858 36.8308 39.738C36.6302 38.1374 36.0485 37.0737 35.0858 36.5474C34.1238 36.0211 33.0375 35.8339 31.8292 35.9859C30.0969 36.2038 28.965 36.8356 28.4335 37.8807C27.9005 38.9272 27.6557 40.277 27.6976 41.9307L21.3762 42.725C21.1748 41.1245 21.2534 39.6377 21.612 38.2647C21.9706 36.8925 22.574 35.688 23.4237 34.6519C24.2726 33.6165 25.3439 32.7683 26.639 32.1073C27.9327 31.447 29.397 31.0143 31.0305 30.8092C34.5587 30.366 37.4342 30.7351 39.6569 31.9164C41.8788 33.0977 43.1934 35.3054 43.5999 38.5395C43.7309 39.5853 43.7399 40.5136 43.6261 41.3243C43.5115 42.1351 43.2825 42.886 42.9381 43.5762C42.593 44.2664 42.1453 44.929 41.5943 45.5623C41.0426 46.1964 40.4122 46.8559 39.7025 47.5424C39.0535 48.1885 38.5384 48.7761 38.1566 49.3047C37.7748 49.834 37.5023 50.3745 37.3399 50.9254C37.1767 51.4772 37.0981 52.0431 37.1048 52.6226C37.1108 53.2028 37.1595 53.8526 37.25 54.5705L31.2708 55.3206ZM32.2627 64.8034L31.4564 58.3832L38.072 57.5523L38.8783 63.9725L32.2627 64.8034Z" fill="#4450E4"/>
</g>
</svg>
