<svg width="29" height="29" viewBox="0 0 29 29" fill="none" xmlns="http://www.w3.org/2000/svg">
<rect width="29" height="29" rx="5.52381" fill="#EAEFFF"/>
<path d="M7.94043 19.218C7.94043 19.9672 7.94043 20.3418 8.02277 20.6491C8.24623 21.483 8.89765 22.1345 9.73161 22.3579C10.0389 22.4402 10.4135 22.4402 11.1627 22.4402H19.2182C19.9673 22.4402 20.3419 22.4402 20.6492 22.3579C21.4832 22.1345 22.1346 21.483 22.3581 20.6491C22.4404 20.3418 22.4404 19.9672 22.4404 19.218" stroke="#3666EE" stroke-width="1.38095" stroke-linecap="round" stroke-linejoin="round"/>
<path d="M18.8154 11.5654C18.8154 11.5654 16.1456 7.94044 15.1904 7.94043C14.2351 7.94042 11.5654 11.5654 11.5654 11.5654M15.1904 8.74599V18.4127" stroke="#3666EE" stroke-width="1.38095" stroke-linecap="round" stroke-linejoin="round"/>
</svg>
