<svg width="38" height="38" viewBox="0 0 38 38" fill="none" xmlns="http://www.w3.org/2000/svg">
<path d="M0 5C0 2.23858 2.23858 0 5 0H33C35.7614 0 38 2.23858 38 5V33C38 35.7614 35.7614 38 33 38H5C2.23858 38 0 35.7614 0 33V5Z" fill="#E8E8E8"/>
<path d="M25.9881 15.356L25.6179 14.7136C25.3379 14.2277 25.198 13.9848 24.9598 13.8879C24.7216 13.791 24.4522 13.8675 23.9135 14.0204L22.9983 14.2781C22.6544 14.3575 22.2935 14.3125 21.9794 14.1511L21.7268 14.0053C21.4574 13.8328 21.2503 13.5785 21.1356 13.2796L20.8852 12.5315C20.7205 12.0365 20.6381 11.789 20.4421 11.6474C20.2461 11.5059 19.9857 11.5059 19.4649 11.5059H18.6288C18.1081 11.5059 17.8477 11.5059 17.6516 11.6474C17.4556 11.789 17.3733 12.0365 17.2086 12.5315L16.9581 13.2796C16.8435 13.5785 16.6363 13.8328 16.367 14.0053L16.1144 14.1511C15.8003 14.3125 15.4394 14.3575 15.0955 14.2781L14.1803 14.0204C13.6416 13.8675 13.3722 13.791 13.134 13.8879C12.8958 13.9848 12.7558 14.2277 12.4759 14.7136L12.1057 15.356C11.8432 15.8115 11.712 16.0392 11.7375 16.2816C11.763 16.524 11.9386 16.7194 12.2899 17.1101L13.0632 17.9746C13.2522 18.2139 13.3864 18.6309 13.3864 19.0058C13.3864 19.3809 13.2523 19.7977 13.0632 20.037L12.2899 20.9016C11.9386 21.2923 11.763 21.4876 11.7375 21.7301C11.712 21.9725 11.8432 22.2002 12.1057 22.6556L12.4759 23.298C12.7558 23.7839 12.8958 24.0269 13.134 24.1237C13.3722 24.2206 13.6416 24.1442 14.1803 23.9913L15.0955 23.7335C15.4395 23.6541 15.8004 23.6992 16.1145 23.8606L16.3671 24.0064C16.6364 24.1789 16.8435 24.4332 16.9581 24.7321L17.2086 25.4802C17.3733 25.9752 17.4556 26.2227 17.6516 26.3643C17.8477 26.5059 18.1081 26.5059 18.6288 26.5059H19.4649C19.9857 26.5059 20.2461 26.5059 20.4421 26.3643C20.6381 26.2227 20.7205 25.9752 20.8852 25.4802L21.1357 24.7321C21.2503 24.4332 21.4574 24.1789 21.7267 24.0064L21.9793 23.8606C22.2934 23.6992 22.6543 23.6541 22.9983 23.7335L23.9135 23.9913C24.4522 24.1442 24.7216 24.2206 24.9598 24.1237C25.198 24.0269 25.3379 23.7839 25.6179 23.298L25.9881 22.6556C26.2505 22.2002 26.3817 21.9725 26.3563 21.7301C26.3308 21.4876 26.1551 21.2923 25.8038 20.9016L25.0305 20.037C24.8415 19.7977 24.7073 19.3809 24.7073 19.0058C24.7073 18.6309 24.8416 18.2139 25.0305 17.9746L25.8038 17.1101C26.1551 16.7194 26.3308 16.524 26.3563 16.2816C26.3817 16.0392 26.2505 15.8115 25.9881 15.356Z" stroke="#5E5873" stroke-width="1.125" stroke-linecap="round"/>
<path d="M21.6406 19C21.6406 20.4497 20.4654 21.625 19.0156 21.625C17.5659 21.625 16.3906 20.4497 16.3906 19C16.3906 17.5503 17.5659 16.375 19.0156 16.375C20.4654 16.375 21.6406 17.5503 21.6406 19Z" stroke="#5E5873" stroke-width="1.125"/>
</svg>
