<svg width="38" height="38" viewBox="0 0 38 38" fill="none" xmlns="http://www.w3.org/2000/svg">
<path d="M0 5C0 2.23858 2.23858 0 5 0H33C35.7614 0 38 2.23858 38 5V33C38 35.7614 35.7614 38 33 38H5C2.23858 38 0 35.7614 0 33V5Z" fill="#E8E8E8"/>
<path d="M21.25 15.625C21.25 13.5539 19.571 11.875 17.5 11.875C15.4289 11.875 13.75 13.5539 13.75 15.625C13.75 17.696 15.4289 19.375 17.5 19.375C19.571 19.375 21.25 17.696 21.25 15.625Z" stroke="#5E5873" stroke-width="1.125" stroke-linecap="round" stroke-linejoin="round"/>
<path d="M12.25 24.625C12.25 21.7255 14.6005 19.375 17.5 19.375C18.3052 19.375 19.068 19.5563 19.75 19.8802" stroke="#5E5873" stroke-width="1.125" stroke-linecap="round" stroke-linejoin="round"/>
<path d="M21.6454 21.1981C23.0594 20.7161 23.7664 20.4751 24.1466 20.8553C24.5269 21.2356 24.2859 21.9426 23.8039 23.3566L23.4756 24.3195C23.1054 25.4055 22.9203 25.9484 22.6151 25.9934C22.5331 26.0054 22.4482 25.9982 22.367 25.9721C22.0652 25.8752 21.9056 25.3027 21.5865 24.1577C21.5157 23.9038 21.4803 23.7768 21.3997 23.6798C21.3763 23.6517 21.3503 23.6257 21.3222 23.6023C21.2252 23.5217 21.0982 23.4863 20.8442 23.4155C19.6993 23.0964 19.1268 22.9368 19.0299 22.6349C19.0038 22.5538 18.9965 22.4688 19.0086 22.3868C19.0535 22.0817 19.5965 21.8966 20.6825 21.5264L21.6454 21.1981Z" stroke="#5E5873"/>
</svg>
