<svg width="20" height="20" viewBox="0 0 20 20" fill="none" xmlns="http://www.w3.org/2000/svg">
<path d="M14.0792 7.25887C14.0851 7.25884 14.0912 7.25883 14.0972 7.25883C16.0992 7.25883 17.7222 8.88475 17.7222 10.8905C17.7222 12.7598 16.3125 14.2992 14.5 14.5M14.0792 7.25887C14.0911 7.12595 14.0972 6.99134 14.0972 6.85531C14.0972 4.40389 12.1136 2.41663 9.66664 2.41663C7.34925 2.41663 5.44741 4.19905 5.25253 6.47012M14.0792 7.25887C13.9967 8.17441 13.6369 9.00978 13.0844 9.67992M8.05593 7.25883C7.38268 6.75208 6.54577 6.45179 5.63886 6.45179C5.50855 6.45179 5.37968 6.45799 5.25253 6.47012C3.20929 6.66491 1.61108 8.38893 1.61108 10.4869C1.61108 12.4391 2.99484 14.0675 4.83331 14.4414" stroke="#3666EE" stroke-width="1.20833" stroke-linecap="round" stroke-linejoin="round"/>
<path d="M9.66672 16.9166V10.4722M9.66672 16.9166C9.10267 16.9166 8.04879 15.3101 7.65283 14.9027M9.66672 16.9166C10.2308 16.9166 11.2847 15.3101 11.6806 14.9027" stroke="#3666EE" stroke-width="1.20833" stroke-linecap="round" stroke-linejoin="round"/>
</svg>
