<svg width="14" height="14" viewBox="0 0 14 14" fill="none" xmlns="http://www.w3.org/2000/svg">
<path fill-rule="evenodd" clip-rule="evenodd" d="M6.6499 0.714276C6.82492 0.539628 7.11683 0.539526 7.3501 0.714276L12.6001 4.79338C12.7748 4.90988 12.8335 5.08453 12.8335 5.2592V11.6684C12.8335 12.6588 12.075 13.4163 11.0835 13.4164H2.9165C1.92484 13.4164 1.1665 12.6589 1.1665 11.6684V5.2592C1.16654 5.08446 1.22498 4.90988 1.3999 4.79338L6.6499 0.714276ZM2.3335 5.55021V11.6684C2.3335 12.018 2.5665 12.2514 2.9165 12.2514H4.6665V7.00725C4.66656 6.65782 4.89973 6.42438 5.24951 6.42424H8.74951C9.09947 6.42424 9.33344 6.65771 9.3335 7.00725V12.2514H11.0835C11.4333 12.2512 11.6665 12.0179 11.6665 11.6684V5.55021L6.99951 1.93791L2.3335 5.55021ZM5.8335 12.2514H8.1665V7.59025H5.8335V12.2514Z" fill="black"/>
<mask id="mask0_1_248" style="mask-type:luminance" maskUnits="userSpaceOnUse" x="1" y="0" width="12" height="14">
<path fill-rule="evenodd" clip-rule="evenodd" d="M6.6499 0.714276C6.82492 0.539628 7.11683 0.539526 7.3501 0.714276L12.6001 4.79338C12.7748 4.90988 12.8335 5.08453 12.8335 5.2592V11.6684C12.8335 12.6588 12.075 13.4163 11.0835 13.4164H2.9165C1.92484 13.4164 1.1665 12.6589 1.1665 11.6684V5.2592C1.16654 5.08446 1.22498 4.90988 1.3999 4.79338L6.6499 0.714276ZM2.3335 5.55021V11.6684C2.3335 12.018 2.5665 12.2514 2.9165 12.2514H4.6665V7.00725C4.66656 6.65782 4.89973 6.42438 5.24951 6.42424H8.74951C9.09947 6.42424 9.33344 6.65771 9.3335 7.00725V12.2514H11.0835C11.4333 12.2512 11.6665 12.0179 11.6665 11.6684V5.55021L6.99951 1.93791L2.3335 5.55021ZM5.8335 12.2514H8.1665V7.59025H5.8335V12.2514Z" fill="white"/>
</mask>
<g mask="url(#mask0_1_248)">
<rect width="14" height="14" fill="#3666EE"/>
</g>
</svg>
