<svg width="18" height="18" viewBox="0 0 18 18" fill="none" xmlns="http://www.w3.org/2000/svg">
<path d="M5.25 7.5V12.75" stroke="#334155" stroke-width="1.125" stroke-linecap="round" stroke-linejoin="round"/>
<path d="M8.25 9.75V12.75M8.25 9.75C8.25 8.50732 9.25732 7.5 10.5 7.5C11.7427 7.5 12.75 8.50732 12.75 9.75V12.75M8.25 9.75V7.5" stroke="#334155" stroke-width="1.125" stroke-linecap="round" stroke-linejoin="round"/>
<path d="M5.25577 5.25H5.24902" stroke="#334155" stroke-width="1.5" stroke-linecap="round" stroke-linejoin="round"/>
<path d="M1.875 9C1.875 5.64124 1.875 3.96187 2.91843 2.91843C3.96187 1.875 5.64124 1.875 9 1.875C12.3587 1.875 14.0381 1.875 15.0816 2.91843C16.125 3.96187 16.125 5.64124 16.125 9C16.125 12.3587 16.125 14.0381 15.0816 15.0816C14.0381 16.125 12.3587 16.125 9 16.125C5.64124 16.125 3.96187 16.125 2.91843 15.0816C1.875 14.0381 1.875 12.3587 1.875 9Z" stroke="#334155" stroke-width="1.125" stroke-linejoin="round"/>
</svg>
