<svg width="21" height="21" viewBox="0 0 21 21" fill="none" xmlns="http://www.w3.org/2000/svg">
<path d="M12.4129 5.13638C12.3731 4.20034 12.2543 3.60389 11.9014 3.14496C11.7646 2.96688 11.6049 2.80748 11.4264 2.67083C10.7334 2.14014 9.72746 2.14014 7.71558 2.14014H7.28667C4.86059 2.14014 3.64755 2.14014 2.89385 2.89234C2.14017 3.64454 2.14015 4.85522 2.14015 7.27653L2.14014 13.269C2.14013 15.6903 2.14012 16.901 2.89382 17.6532C3.64751 18.4054 4.86056 18.4054 7.28667 18.4054H7.71553C9.72746 18.4054 10.7334 18.4054 11.4264 17.8748C11.6048 17.7381 11.7646 17.5787 11.9014 17.4007C12.2543 16.9417 12.3731 16.3451 12.4129 15.4089" stroke="#141B34" stroke-width="1.2841" stroke-linecap="round" stroke-linejoin="round"/>
<path d="M17.5492 10.2728H7.27637M15.409 13.2691C15.409 13.2691 18.4052 11.0624 18.4052 10.2729C18.4052 9.4833 15.409 7.27661 15.409 7.27661" stroke="#141B34" stroke-width="1.2841" stroke-linecap="round" stroke-linejoin="round"/>
</svg>
