<svg width="18" height="18" viewBox="0 0 18 18" fill="none" xmlns="http://www.w3.org/2000/svg">
<path d="M11.625 8.25C11.625 6.80025 10.4497 5.625 9 5.625C7.55025 5.625 6.375 6.80025 6.375 8.25C6.375 9.69975 7.55025 10.875 9 10.875C10.4497 10.875 11.625 9.69975 11.625 8.25Z" stroke="#334155" stroke-width="1.125" stroke-linecap="round" stroke-linejoin="round"/>
<path d="M11.6119 8.51243C11.8534 8.58563 12.1095 8.625 12.3748 8.625C13.8246 8.625 14.9998 7.44975 14.9998 6C14.9998 4.55025 13.8246 3.375 12.3748 3.375C11.0137 3.375 9.89444 4.41105 9.76282 5.7376" stroke="#334155" stroke-width="1.125" stroke-linecap="round" stroke-linejoin="round"/>
<path d="M8.23703 5.7376C8.1054 4.41105 6.98619 3.375 5.625 3.375C4.17525 3.375 3 4.55025 3 6C3 7.44975 4.17525 8.625 5.625 8.625C5.89036 8.625 6.14651 8.58563 6.38795 8.51243" stroke="#334155" stroke-width="1.125" stroke-linecap="round" stroke-linejoin="round"/>
<path d="M16.5 12.375C16.5 10.304 14.6532 8.625 12.375 8.625" stroke="#334155" stroke-width="1.125" stroke-linecap="round" stroke-linejoin="round"/>
<path d="M13.125 14.625C13.125 12.554 11.2782 10.875 9 10.875C6.72182 10.875 4.875 12.554 4.875 14.625" stroke="#334155" stroke-width="1.125" stroke-linecap="round" stroke-linejoin="round"/>
<path d="M5.625 8.625C3.34682 8.625 1.5 10.304 1.5 12.375" stroke="#334155" stroke-width="1.125" stroke-linecap="round" stroke-linejoin="round"/>
</svg>
